<svg id="svg" version="1.1" xmlns="http://www.w3.org/2000/svg" xmlns:xlink="http://www.w3.org/1999/xlink" width="400" height="400" viewBox="0, 0, 400,400"><g id="svgg"><path id="path0" d="M101.322 113.182 C 99.085 114.546,99.157 112.326,99.283 176.000 L 99.400 235.000 200.000 235.000 L 300.600 235.000 300.717 176.000 C 300.843 112.326,300.915 114.546,298.678 113.182 C 296.667 111.956,103.333 111.956,101.322 113.182 " stroke="none" fill="#ebf3f3" fill-rule="evenodd"></path><path id="path1" d="M87.036 100.831 L 86.000 102.061 86.000 180.851 C 86.000 268.262,85.777 261.395,88.658 262.599 C 89.899 263.117,94.587 263.200,122.654 263.200 L 155.210 263.200 155.105 277.700 L 155.000 292.200 150.287 292.313 L 145.573 292.426 145.687 296.713 L 145.800 301.000 200.100 301.101 L 254.400 301.203 254.400 296.814 L 254.400 292.425 249.700 292.313 L 245.000 292.200 244.895 277.700 L 244.790 263.200 277.376 263.200 C 311.479 263.200,311.098 263.219,313.100 261.454 L 314.000 260.661 314.000 181.185 L 314.000 101.709 312.945 100.655 L 311.891 99.600 199.981 99.600 L 88.071 99.600 87.036 100.831 M297.944 112.134 C 301.517 113.202,301.181 106.684,301.191 175.101 L 301.200 235.602 200.100 235.501 L 99.000 235.400 98.899 175.056 C 98.785 107.027,98.494 113.204,101.852 112.163 C 104.220 111.430,295.494 111.401,297.944 112.134 " stroke="none" fill="#597182" fill-rule="evenodd"></path><path id="path2" d="M182.384 0.138 C 182.265 0.263,180.735 0.397,178.984 0.436 C 177.233 0.474,175.708 0.648,175.595 0.822 C 175.483 0.996,173.998 1.191,172.295 1.254 C 170.593 1.317,169.200 1.511,169.200 1.685 C 169.200 1.858,168.221 2.000,167.024 2.000 C 165.827 2.000,164.736 2.180,164.600 2.400 C 164.464 2.620,163.553 2.800,162.576 2.800 C 161.599 2.800,160.800 2.980,160.800 3.200 C 160.800 3.420,159.900 3.600,158.800 3.600 C 157.700 3.600,156.800 3.780,156.800 4.000 C 156.800 4.220,156.001 4.400,155.024 4.400 C 154.047 4.400,153.148 4.560,153.027 4.756 C 152.820 5.092,152.330 5.214,148.703 5.832 C 147.880 5.972,147.306 6.247,147.427 6.443 C 147.548 6.640,147.007 6.800,146.224 6.800 C 145.441 6.800,144.800 6.980,144.800 7.200 C 144.800 7.420,144.170 7.600,143.400 7.600 C 142.630 7.600,142.000 7.780,142.000 8.000 C 142.000 8.220,141.359 8.400,140.576 8.400 C 139.693 8.400,139.250 8.558,139.410 8.816 C 139.574 9.082,139.320 9.145,138.704 8.990 C 138.090 8.836,137.561 8.965,137.245 9.346 C 136.972 9.675,136.365 9.870,135.897 9.780 C 135.428 9.690,134.743 9.890,134.373 10.225 C 134.003 10.559,133.543 10.797,133.350 10.752 C 133.158 10.707,132.490 10.881,131.866 11.138 C 131.243 11.395,130.540 11.487,130.305 11.341 C 130.051 11.184,129.993 11.265,130.162 11.538 C 130.413 11.944,129.400 12.221,128.300 12.047 C 128.135 12.021,128.000 12.180,128.000 12.400 C 128.000 12.620,127.832 12.800,127.626 12.800 C 127.420 12.800,126.745 13.009,126.126 13.265 C 125.507 13.520,124.865 13.700,124.700 13.665 C 124.535 13.629,124.400 13.780,124.400 14.000 C 124.400 14.220,123.860 14.400,123.200 14.400 C 122.540 14.400,122.000 14.580,122.000 14.800 C 122.000 15.020,121.730 15.200,121.400 15.200 C 121.070 15.200,120.800 15.380,120.800 15.600 C 120.800 15.820,120.350 16.000,119.800 16.000 C 119.250 16.000,118.800 16.180,118.800 16.400 C 118.800 16.620,118.350 16.800,117.800 16.800 C 117.250 16.800,116.800 16.980,116.800 17.200 C 116.800 17.420,116.618 17.600,116.396 17.600 C 116.033 17.600,113.747 18.545,111.307 19.704 C 110.815 19.937,110.056 20.461,109.620 20.867 C 109.183 21.274,108.383 21.643,107.842 21.688 C 107.301 21.733,106.927 21.881,107.011 22.017 C 107.095 22.153,106.542 22.509,105.782 22.807 C 105.022 23.105,104.400 23.496,104.400 23.675 C 104.400 23.854,104.040 24.000,103.600 24.000 C 103.160 24.000,102.800 24.180,102.800 24.400 C 102.800 24.620,102.530 24.800,102.200 24.800 C 101.870 24.800,101.600 24.991,101.600 25.224 C 101.600 25.457,101.419 25.535,101.197 25.398 C 100.976 25.261,100.687 25.430,100.555 25.772 C 100.424 26.115,100.162 26.300,99.974 26.184 C 99.564 25.930,97.930 26.796,97.475 27.508 C 97.297 27.788,97.002 27.925,96.821 27.813 C 96.639 27.701,96.268 27.877,95.996 28.204 C 95.724 28.532,95.337 28.800,95.134 28.800 C 94.932 28.800,94.369 29.182,93.883 29.650 C 93.397 30.117,92.243 30.842,91.318 31.261 C 90.392 31.679,89.377 32.280,89.061 32.597 C 88.744 32.913,88.259 33.223,87.982 33.286 C 87.704 33.349,86.991 33.895,86.395 34.500 C 85.800 35.105,85.110 35.600,84.861 35.600 C 84.389 35.600,83.345 36.376,81.768 37.900 C 81.256 38.395,80.548 38.800,80.195 38.800 C 79.842 38.800,79.664 38.980,79.800 39.200 C 79.936 39.420,79.868 39.600,79.648 39.600 C 79.429 39.600,78.658 40.140,77.936 40.800 C 77.213 41.460,76.458 42.000,76.258 42.000 C 76.058 42.000,75.558 42.388,75.147 42.861 C 74.736 43.335,74.400 43.612,74.400 43.477 C 74.400 43.342,73.635 43.943,72.700 44.811 C 71.765 45.679,70.775 46.392,70.500 46.395 C 70.225 46.398,70.000 46.700,70.000 47.067 C 70.000 47.433,69.886 47.619,69.747 47.480 C 69.608 47.341,69.143 47.673,68.715 48.217 C 68.286 48.762,67.783 49.113,67.597 48.998 C 67.410 48.883,67.135 49.175,66.985 49.647 C 66.824 50.154,66.603 50.329,66.446 50.074 C 66.285 49.814,65.863 50.113,65.389 50.820 C 64.955 51.468,64.415 51.998,64.188 51.999 C 63.962 51.999,63.512 52.375,63.188 52.833 C 62.294 54.100,60.432 56.000,60.085 56.000 C 59.915 56.000,59.512 56.382,59.188 56.849 C 58.447 57.919,57.919 58.447,56.849 59.188 C 56.382 59.512,56.000 59.915,56.000 60.085 C 56.000 60.432,54.100 62.294,52.833 63.188 C 52.375 63.512,51.999 63.962,51.999 64.188 C 51.998 64.415,51.468 64.955,50.820 65.389 C 50.113 65.863,49.814 66.285,50.074 66.446 C 50.329 66.603,50.154 66.824,49.647 66.985 C 49.175 67.135,48.883 67.410,48.998 67.597 C 49.113 67.783,48.762 68.286,48.217 68.715 C 47.673 69.143,47.341 69.608,47.480 69.747 C 47.619 69.886,47.433 70.000,47.067 70.000 C 46.700 70.000,46.398 70.225,46.395 70.500 C 46.392 70.775,45.679 71.765,44.811 72.700 C 43.943 73.635,43.355 74.400,43.505 74.400 C 43.655 74.400,43.378 74.680,42.889 75.023 C 42.400 75.365,42.000 75.877,42.000 76.159 C 42.000 76.442,41.280 77.407,40.400 78.305 C 39.520 79.203,38.800 80.131,38.800 80.369 C 38.800 80.606,38.650 80.800,38.468 80.800 C 38.285 80.800,37.881 81.295,37.570 81.900 C 37.260 82.505,36.689 83.291,36.303 83.647 C 35.916 84.003,35.600 84.523,35.600 84.804 C 35.600 85.084,35.105 85.800,34.500 86.395 C 33.895 86.991,33.349 87.704,33.286 87.982 C 33.223 88.259,32.913 88.744,32.597 89.061 C 32.280 89.377,31.679 90.392,31.261 91.318 C 30.842 92.243,30.117 93.397,29.650 93.883 C 29.182 94.369,28.800 94.932,28.800 95.134 C 28.800 95.337,28.532 95.724,28.204 95.996 C 27.877 96.268,27.701 96.639,27.813 96.821 C 27.925 97.002,27.788 97.297,27.508 97.475 C 26.796 97.930,25.930 99.564,26.184 99.974 C 26.300 100.162,26.115 100.424,25.772 100.555 C 25.430 100.687,25.261 100.976,25.398 101.197 C 25.535 101.419,25.457 101.600,25.224 101.600 C 24.991 101.600,24.800 101.870,24.800 102.200 C 24.800 102.530,24.620 102.800,24.400 102.800 C 24.180 102.800,24.000 103.160,24.000 103.600 C 24.000 104.040,23.854 104.400,23.675 104.400 C 23.496 104.400,23.105 105.022,22.807 105.782 C 22.509 106.542,22.111 107.069,21.923 106.952 C 21.734 106.836,21.606 106.889,21.637 107.070 C 21.809 108.057,21.547 109.214,21.200 109.000 C 20.973 108.860,20.800 109.196,20.800 109.776 C 20.800 110.339,20.650 110.800,20.468 110.800 C 20.285 110.800,19.948 111.205,19.718 111.700 C 18.164 115.054,17.379 116.626,17.171 116.800 C 17.039 116.910,16.682 117.855,16.378 118.900 C 16.074 119.945,15.685 120.800,15.513 120.800 C 15.341 120.800,15.200 121.070,15.200 121.400 C 15.200 121.730,15.020 122.000,14.800 122.000 C 14.580 122.000,14.400 122.540,14.400 123.200 C 14.400 123.860,14.220 124.400,14.000 124.400 C 13.780 124.400,13.629 124.535,13.665 124.700 C 13.700 124.865,13.520 125.507,13.265 126.126 C 13.009 126.745,12.800 127.420,12.800 127.626 C 12.800 127.832,12.620 128.000,12.400 128.000 C 12.180 128.000,12.021 128.135,12.047 128.300 C 12.221 129.400,11.944 130.413,11.538 130.162 C 11.246 129.981,11.185 130.052,11.373 130.356 C 11.536 130.619,11.451 131.097,11.185 131.418 C 10.920 131.738,10.836 132.000,11.000 132.000 C 11.164 132.000,11.093 132.247,10.842 132.549 C 10.591 132.851,10.498 133.390,10.635 133.746 C 10.789 134.148,10.631 134.490,10.220 134.648 C 9.837 134.795,9.598 135.261,9.655 135.751 C 9.710 136.218,9.450 137.176,9.077 137.880 C 8.705 138.584,8.400 139.799,8.400 140.580 C 8.400 141.361,8.220 142.000,8.000 142.000 C 7.780 142.000,7.600 142.540,7.600 143.200 C 7.600 143.860,7.420 144.400,7.200 144.400 C 6.980 144.400,6.800 145.131,6.800 146.024 C 6.800 147.004,6.642 147.549,6.400 147.400 C 6.167 147.256,6.000 147.663,6.000 148.376 C 6.000 149.049,5.820 149.600,5.600 149.600 C 5.380 149.600,5.200 150.399,5.200 151.376 C 5.200 152.353,5.020 153.264,4.800 153.400 C 4.580 153.536,4.400 154.346,4.400 155.200 C 4.400 156.054,4.220 156.864,4.000 157.000 C 3.780 157.136,3.600 157.967,3.600 158.847 C 3.600 159.727,3.447 160.353,3.259 160.237 C 3.072 160.121,2.886 161.145,2.846 162.513 C 2.805 163.881,2.599 165.060,2.386 165.133 C 2.174 165.207,2.000 166.206,2.000 167.353 C 2.000 168.501,1.835 169.611,1.632 169.820 C 1.262 170.203,1.198 170.780,0.388 181.000 C -0.215 188.615,0.169 224.800,0.853 224.800 C 1.008 224.800,1.235 226.015,1.358 227.500 C 1.870 233.666,2.090 235.192,2.436 234.978 C 2.639 234.852,2.800 235.820,2.800 237.176 C 2.800 238.525,2.977 239.600,3.200 239.600 C 3.420 239.600,3.600 240.309,3.600 241.176 C 3.600 242.043,3.780 242.864,4.000 243.000 C 4.220 243.136,4.400 243.946,4.400 244.800 C 4.400 245.654,4.580 246.464,4.800 246.600 C 5.020 246.736,5.200 247.456,5.200 248.200 C 5.200 248.944,5.380 249.664,5.600 249.800 C 5.820 249.936,6.000 250.667,6.000 251.424 C 6.000 252.181,6.180 252.800,6.400 252.800 C 6.620 252.800,6.800 253.441,6.800 254.224 C 6.800 255.071,6.962 255.547,7.200 255.400 C 7.438 255.253,7.600 255.729,7.600 256.576 C 7.600 257.359,7.780 258.000,8.000 258.000 C 8.220 258.000,8.406 258.675,8.414 259.500 C 8.422 260.325,8.686 261.450,9.000 262.000 C 9.314 262.550,9.578 263.480,9.586 264.067 C 9.594 264.653,9.782 265.194,10.004 265.268 C 10.226 265.342,10.486 265.762,10.582 266.201 C 10.678 266.641,10.930 267.571,11.142 268.270 C 11.353 268.968,11.408 269.672,11.263 269.834 C 11.119 269.996,11.225 269.999,11.500 269.841 C 11.775 269.682,12.013 269.698,12.030 269.876 C 12.143 271.110,12.534 272.333,13.402 274.167 C 13.951 275.328,14.400 276.665,14.400 277.139 C 14.400 277.612,14.580 278.000,14.800 278.000 C 15.020 278.000,15.200 278.270,15.200 278.600 C 15.200 278.930,15.380 279.200,15.600 279.200 C 15.820 279.200,16.000 279.639,16.000 280.176 C 16.000 280.713,16.180 281.264,16.400 281.400 C 16.620 281.536,16.800 281.997,16.800 282.424 C 16.800 282.851,16.980 283.200,17.200 283.200 C 17.420 283.200,17.600 283.560,17.600 284.000 C 17.600 284.440,17.744 284.800,17.920 284.800 C 18.095 284.800,18.481 285.475,18.776 286.300 C 19.071 287.125,19.426 287.890,19.564 288.000 C 19.703 288.110,20.434 289.460,21.188 291.000 C 21.943 292.540,22.884 294.278,23.280 294.862 C 23.676 295.446,24.000 296.211,24.000 296.562 C 24.000 296.913,24.180 297.200,24.400 297.200 C 24.620 297.200,24.800 297.470,24.800 297.800 C 24.800 298.130,24.991 298.400,25.224 298.400 C 25.457 298.400,25.535 298.581,25.398 298.803 C 25.261 299.024,25.434 299.315,25.782 299.448 C 26.130 299.582,26.391 299.896,26.364 300.146 C 26.280 300.898,26.868 302.400,27.247 302.400 C 27.441 302.400,27.600 302.571,27.600 302.780 C 27.600 303.138,29.890 306.767,30.389 307.200 C 30.516 307.310,31.065 308.255,31.609 309.300 C 32.153 310.345,32.734 311.200,32.899 311.200 C 33.065 311.200,33.201 311.425,33.202 311.700 C 33.203 311.975,33.743 312.775,34.402 313.478 C 35.061 314.181,35.600 314.997,35.600 315.290 C 35.600 315.583,35.960 316.083,36.400 316.400 C 36.840 316.717,37.200 317.207,37.200 317.488 C 37.200 317.770,37.380 318.000,37.600 318.000 C 37.820 318.000,38.000 318.270,38.000 318.600 C 38.000 318.930,38.141 319.200,38.314 319.200 C 38.486 319.200,38.929 319.695,39.297 320.300 C 39.665 320.905,40.603 322.063,41.383 322.873 C 42.162 323.684,42.800 324.539,42.800 324.773 C 42.800 325.008,43.010 325.200,43.267 325.200 C 43.523 325.200,43.625 325.308,43.493 325.440 C 43.273 325.660,44.460 327.164,46.682 329.481 C 47.167 329.986,47.442 330.400,47.293 330.400 C 47.144 330.400,47.422 330.680,47.911 331.023 C 48.400 331.365,48.800 331.905,48.800 332.223 C 48.800 332.540,48.980 332.800,49.200 332.800 C 49.420 332.800,49.603 333.115,49.606 333.500 C 49.611 334.098,49.669 334.113,50.000 333.600 C 50.332 333.087,50.389 333.101,50.394 333.697 C 50.397 334.080,50.760 334.618,51.200 334.893 C 51.640 335.168,52.000 335.542,52.000 335.725 C 52.000 336.244,53.076 337.191,53.352 336.914 C 53.489 336.778,53.600 336.997,53.600 337.400 C 53.600 337.803,53.701 338.032,53.825 337.909 C 54.058 337.676,58.155 341.688,59.188 343.161 C 59.512 343.623,59.930 344.000,60.117 344.000 C 60.642 344.000,61.593 345.074,61.314 345.352 C 61.178 345.489,61.285 345.600,61.552 345.600 C 61.818 345.600,62.486 346.050,63.036 346.600 C 63.586 347.150,63.893 347.601,63.718 347.603 C 63.543 347.604,63.940 347.963,64.600 348.400 C 65.260 348.837,65.652 349.196,65.471 349.197 C 65.291 349.199,65.413 349.470,65.743 349.800 C 66.073 350.130,66.517 350.400,66.729 350.400 C 66.942 350.400,67.668 350.916,68.344 351.547 C 69.019 352.178,69.668 352.598,69.786 352.481 C 69.904 352.363,70.000 352.567,70.000 352.933 C 70.000 353.300,70.203 353.600,70.452 353.600 C 70.700 353.600,71.645 354.239,72.552 355.020 C 74.479 356.681,74.540 356.728,76.498 358.055 C 77.322 358.614,77.896 359.170,77.775 359.292 C 77.653 359.413,78.104 359.756,78.777 360.054 C 79.450 360.352,80.000 360.731,80.000 360.898 C 80.000 361.064,80.193 361.200,80.429 361.200 C 81.021 361.200,82.018 362.249,81.714 362.552 C 81.578 362.689,81.733 362.800,82.058 362.800 C 82.383 362.800,83.036 363.160,83.508 363.600 C 83.980 364.040,84.604 364.400,84.895 364.400 C 85.186 364.400,85.683 364.760,86.000 365.200 C 86.317 365.640,86.807 366.000,87.088 366.000 C 87.370 366.000,87.600 366.180,87.600 366.400 C 87.600 366.620,87.870 366.800,88.200 366.800 C 88.530 366.800,88.800 366.980,88.800 367.200 C 88.800 367.420,89.070 367.600,89.400 367.600 C 89.730 367.600,90.000 367.736,90.000 367.902 C 90.000 368.069,90.585 368.464,91.300 368.780 C 92.015 369.097,92.949 369.680,93.375 370.078 C 93.802 370.475,94.365 370.800,94.626 370.800 C 94.888 370.800,95.315 371.057,95.576 371.371 C 95.837 371.685,96.984 372.428,98.125 373.023 C 99.266 373.617,100.310 374.275,100.445 374.486 C 100.579 374.696,100.800 374.869,100.936 374.869 C 101.675 374.872,102.800 375.341,102.800 375.647 C 102.800 375.841,103.124 376.000,103.520 376.000 C 103.916 376.000,104.411 376.163,104.620 376.362 C 105.292 377.003,108.006 378.400,108.579 378.400 C 108.884 378.400,109.193 378.542,109.267 378.714 C 109.540 379.360,111.954 380.800,112.762 380.800 C 113.223 380.800,113.600 380.952,113.600 381.137 C 113.600 381.322,114.320 381.689,115.200 381.953 C 116.080 382.216,116.800 382.635,116.800 382.883 C 116.800 383.131,116.914 383.220,117.053 383.081 C 117.192 382.942,117.687 383.040,118.153 383.300 C 118.619 383.559,119.135 383.801,119.300 383.836 C 119.465 383.871,119.735 383.944,119.900 383.997 C 120.065 384.051,120.335 384.073,120.500 384.047 C 120.665 384.021,120.800 384.136,120.800 384.302 C 120.800 384.469,121.385 384.844,122.100 385.136 C 124.850 386.259,125.422 386.504,126.095 386.847 C 126.477 387.041,127.062 387.200,127.395 387.200 C 127.728 387.200,128.000 387.380,128.000 387.600 C 128.000 387.820,128.135 387.955,128.300 387.901 C 128.612 387.797,132.807 389.051,134.200 389.664 C 134.640 389.858,135.423 390.096,135.941 390.193 C 136.458 390.290,137.088 390.533,137.341 390.734 C 137.593 390.934,138.114 391.046,138.498 390.984 C 138.883 390.922,139.298 391.035,139.422 391.236 C 139.546 391.436,140.076 391.600,140.600 391.600 C 141.124 391.600,141.664 391.780,141.800 392.000 C 141.936 392.220,142.566 392.400,143.200 392.400 C 143.834 392.400,144.464 392.580,144.600 392.800 C 144.736 393.020,145.377 393.200,146.024 393.200 C 146.671 393.200,147.200 393.360,147.200 393.556 C 147.200 393.752,147.785 394.009,148.500 394.127 C 149.215 394.246,150.610 394.551,151.600 394.807 C 152.590 395.062,154.165 395.364,155.100 395.476 C 156.035 395.589,156.800 395.842,156.800 396.040 C 156.800 396.238,157.711 396.400,158.824 396.400 C 160.071 396.400,160.752 396.553,160.600 396.800 C 160.447 397.048,161.196 397.200,162.576 397.200 C 163.799 397.200,164.800 397.380,164.800 397.600 C 164.800 397.822,165.859 398.000,167.176 398.000 C 168.483 398.000,169.664 398.180,169.800 398.400 C 169.936 398.620,171.297 398.800,172.824 398.800 C 174.351 398.800,175.600 398.955,175.600 399.144 C 175.600 399.914,222.404 400.156,223.170 399.390 C 223.528 399.032,90.099 265.177,86.800 262.586 C 84.685 260.924,84.800 265.597,84.801 181.105 C 84.803 91.564,84.446 100.448,88.108 98.786 C 89.763 98.034,92.193 98.017,199.754 98.009 C 318.284 97.999,311.981 97.880,313.851 100.170 C 315.491 102.178,398.533 185.220,399.351 185.670 C 400.066 186.063,400.090 185.926,399.849 182.741 C 399.710 180.904,399.563 178.545,399.523 177.500 C 399.483 176.455,399.304 175.600,399.125 175.600 C 398.946 175.600,398.800 174.351,398.800 172.824 C 398.800 171.297,398.620 169.936,398.400 169.800 C 398.180 169.664,398.000 168.483,398.000 167.176 C 398.000 165.859,397.822 164.800,397.600 164.800 C 397.380 164.800,397.200 163.799,397.200 162.576 C 397.200 161.353,397.038 160.453,396.840 160.575 C 396.502 160.784,396.387 160.242,395.768 155.500 C 395.631 154.455,395.358 153.600,395.160 153.600 C 394.962 153.600,394.800 153.118,394.800 152.528 C 394.800 151.939,394.632 150.904,394.427 150.228 C 394.222 149.553,393.844 148.190,393.588 147.200 C 393.332 146.210,392.960 145.087,392.761 144.705 C 392.562 144.323,392.400 143.569,392.400 143.029 C 392.400 142.489,392.244 141.951,392.053 141.832 C 391.861 141.714,391.564 140.849,391.392 139.909 C 390.996 137.751,391.059 137.958,390.467 136.892 C 390.190 136.392,390.072 135.807,390.205 135.592 C 390.338 135.376,390.295 135.200,390.109 135.200 C 389.923 135.200,389.737 134.840,389.695 134.400 C 389.531 132.677,389.455 132.400,389.149 132.400 C 388.902 132.400,388.153 130.382,387.813 128.800 C 387.753 128.524,386.415 125.555,385.966 124.705 C 385.765 124.323,385.600 123.659,385.600 123.229 C 385.600 122.799,385.420 122.336,385.200 122.200 C 384.980 122.064,384.800 121.603,384.800 121.176 C 384.800 120.749,384.664 120.400,384.498 120.400 C 384.331 120.400,383.953 119.815,383.657 119.100 C 383.361 118.385,382.777 117.037,382.359 116.104 C 381.942 115.172,381.600 114.227,381.600 114.004 C 381.600 113.782,381.420 113.600,381.200 113.600 C 380.980 113.600,380.800 113.120,380.800 112.533 C 380.800 111.947,380.683 111.584,380.539 111.727 C 380.246 112.020,379.200 110.192,379.200 109.388 C 379.200 109.101,379.012 108.804,378.782 108.727 C 378.552 108.651,378.335 108.198,378.299 107.722 C 378.263 107.245,378.091 106.944,377.917 107.051 C 377.743 107.159,377.596 107.012,377.591 106.724 C 377.586 106.436,377.230 105.750,376.800 105.200 C 376.370 104.650,376.014 103.885,376.009 103.500 C 376.004 103.115,375.832 102.800,375.627 102.800 C 375.292 102.800,374.670 101.494,374.620 100.685 C 374.609 100.512,374.330 100.200,374.000 99.992 C 373.670 99.783,373.563 99.609,373.762 99.606 C 373.961 99.603,373.860 99.285,373.537 98.900 C 372.383 97.523,371.494 95.890,372.059 96.181 C 372.356 96.335,372.195 96.103,371.700 95.666 C 371.205 95.229,370.800 94.614,370.800 94.298 C 370.800 93.982,370.440 93.398,370.000 93.000 C 369.560 92.602,369.200 92.034,369.200 91.738 C 369.200 91.442,369.032 91.200,368.827 91.200 C 368.622 91.200,368.343 90.849,368.206 90.420 C 368.070 89.992,367.429 89.073,366.781 88.380 C 366.133 87.686,365.683 86.990,365.780 86.832 C 365.877 86.675,365.607 86.293,365.179 85.985 C 364.750 85.676,364.400 85.264,364.400 85.069 C 364.400 84.666,361.965 81.470,361.503 81.267 C 361.336 81.193,361.200 80.878,361.200 80.567 C 361.200 80.255,361.020 80.000,360.800 80.000 C 360.580 80.000,360.400 79.730,360.400 79.400 C 360.400 79.070,360.220 78.800,360.000 78.800 C 359.780 78.800,359.600 78.628,359.600 78.418 C 359.600 78.208,359.195 77.620,358.700 77.111 C 358.205 76.603,357.440 75.672,357.000 75.043 C 355.746 73.250,354.261 71.446,353.602 70.913 C 353.271 70.645,353.119 70.420,353.264 70.413 C 353.410 70.406,352.780 69.614,351.864 68.653 C 348.563 65.187,346.911 63.222,347.120 63.013 C 347.237 62.896,347.142 62.800,346.909 62.800 C 346.384 62.800,344.000 60.610,344.000 60.128 C 344.000 59.935,343.630 59.512,343.177 59.188 C 341.629 58.082,338.469 54.864,338.701 54.632 C 338.829 54.504,338.623 54.400,338.243 54.400 C 337.863 54.400,337.664 54.220,337.800 54.000 C 337.936 53.780,337.737 53.600,337.357 53.600 C 336.977 53.600,336.778 53.489,336.914 53.352 C 337.218 53.049,336.221 52.000,335.629 52.000 C 335.393 52.000,335.200 51.850,335.200 51.668 C 335.200 51.485,334.747 51.093,334.192 50.796 C 333.460 50.404,333.324 50.169,333.692 49.934 C 334.061 49.701,334.008 49.611,333.500 49.606 C 333.115 49.603,332.800 49.420,332.800 49.200 C 332.800 48.980,332.546 48.800,332.236 48.800 C 331.925 48.800,331.217 48.260,330.661 47.600 C 330.106 46.940,329.526 46.400,329.372 46.400 C 329.218 46.400,328.685 45.961,328.188 45.425 C 327.691 44.888,327.175 44.558,327.042 44.691 C 326.909 44.824,326.800 44.713,326.800 44.443 C 326.800 44.173,326.620 44.064,326.400 44.200 C 326.180 44.336,326.000 44.167,326.000 43.824 C 326.000 43.481,325.848 43.200,325.662 43.200 C 325.476 43.200,324.801 42.750,324.162 42.200 C 323.523 41.651,322.868 41.201,322.707 41.200 C 322.435 41.200,321.144 40.146,319.032 38.200 C 318.554 37.760,317.992 37.348,317.782 37.285 C 317.572 37.222,316.994 36.817,316.497 36.385 C 316.000 35.953,315.315 35.600,314.973 35.600 C 314.632 35.600,314.464 35.420,314.600 35.200 C 314.736 34.980,314.649 34.800,314.407 34.800 C 314.165 34.800,313.580 34.440,313.108 34.000 C 312.636 33.560,312.013 33.200,311.725 33.200 C 311.436 33.200,311.200 33.020,311.200 32.800 C 311.200 32.580,310.930 32.400,310.600 32.400 C 310.270 32.400,310.000 32.220,310.000 32.000 C 310.000 31.780,309.730 31.600,309.400 31.600 C 309.070 31.600,308.800 31.420,308.800 31.200 C 308.800 30.980,308.506 30.800,308.147 30.800 C 307.788 30.800,307.158 30.412,306.747 29.939 C 306.336 29.465,305.994 29.240,305.987 29.439 C 305.980 29.637,305.710 29.451,305.387 29.024 C 305.064 28.596,304.800 28.384,304.800 28.552 C 304.800 28.720,304.515 28.573,304.168 28.225 C 303.820 27.877,303.370 27.695,303.168 27.820 C 302.965 27.945,302.800 27.852,302.800 27.614 C 302.800 27.165,300.867 26.209,300.249 26.352 C 300.057 26.397,299.641 26.066,299.327 25.617 C 299.012 25.168,298.405 24.800,297.977 24.800 C 297.550 24.800,297.199 24.665,297.199 24.500 C 297.198 24.335,296.222 23.755,295.030 23.210 C 293.839 22.666,292.950 22.081,293.055 21.910 C 293.161 21.740,292.894 21.600,292.461 21.600 C 291.627 21.600,288.292 20.006,288.067 19.500 C 287.993 19.335,287.588 19.200,287.167 19.200 C 286.745 19.200,286.400 19.020,286.400 18.800 C 286.400 18.580,286.040 18.400,285.600 18.400 C 285.160 18.400,284.800 18.220,284.800 18.000 C 284.800 17.780,284.350 17.600,283.800 17.600 C 283.250 17.600,282.800 17.420,282.800 17.200 C 282.800 16.980,282.429 16.800,281.976 16.800 C 281.523 16.800,281.241 16.657,281.349 16.483 C 281.456 16.309,281.155 16.137,280.678 16.101 C 280.202 16.065,279.749 15.848,279.673 15.618 C 279.596 15.388,279.109 15.200,278.590 15.200 C 278.072 15.200,277.536 15.020,277.400 14.800 C 277.264 14.580,276.793 14.400,276.353 14.400 C 275.913 14.400,275.664 14.220,275.800 14.000 C 275.941 13.772,275.591 13.600,274.985 13.600 C 274.401 13.600,273.402 13.229,272.764 12.775 C 272.127 12.321,271.439 12.052,271.235 12.178 C 271.031 12.304,270.625 12.175,270.332 11.891 C 270.040 11.607,269.270 11.335,268.622 11.286 C 267.975 11.236,267.320 10.994,267.167 10.747 C 267.014 10.500,266.704 10.412,266.477 10.552 C 266.250 10.693,265.781 10.524,265.435 10.178 C 265.089 9.832,264.657 9.641,264.474 9.754 C 264.292 9.867,263.620 9.688,262.981 9.356 C 262.342 9.025,261.500 8.837,261.110 8.939 C 260.719 9.042,260.400 8.962,260.400 8.763 C 260.400 8.563,259.950 8.400,259.400 8.400 C 258.850 8.400,258.400 8.220,258.400 8.000 C 258.400 7.780,257.918 7.600,257.328 7.600 C 256.237 7.600,253.960 6.985,252.705 6.351 C 252.323 6.158,251.569 6.000,251.029 6.000 C 250.489 6.000,249.936 5.820,249.800 5.600 C 249.664 5.380,249.034 5.200,248.400 5.200 C 247.766 5.200,247.136 5.020,247.000 4.800 C 246.864 4.580,245.953 4.400,244.976 4.400 C 243.999 4.400,243.200 4.220,243.200 4.000 C 243.200 3.780,242.300 3.600,241.200 3.600 C 240.100 3.600,239.200 3.437,239.200 3.237 C 239.200 2.897,238.378 2.766,232.500 2.165 C 231.235 2.035,230.029 1.765,229.820 1.565 C 229.611 1.364,228.432 1.200,227.200 1.200 C 225.968 1.200,224.745 0.985,224.482 0.722 C 223.985 0.225,182.843 -0.345,182.384 0.138 " stroke="none" fill="#ec8c54" fill-rule="evenodd"></path><path id="path3" d="M91.667 30.667 C 91.393 30.960,91.321 31.200,91.508 31.200 C 91.694 31.200,92.175 30.960,92.576 30.667 C 93.106 30.279,93.150 30.133,92.735 30.133 C 92.422 30.133,91.941 30.373,91.667 30.667 M72.200 44.706 C 71.980 44.868,71.535 45.360,71.212 45.800 C 70.778 46.391,70.909 46.346,71.712 45.630 C 72.691 44.758,72.989 44.388,72.700 44.406 C 72.645 44.409,72.420 44.544,72.200 44.706 M349.630 66.300 C 350.164 66.905,350.645 67.475,350.700 67.567 C 350.755 67.658,350.883 67.651,350.984 67.549 C 351.218 67.316,349.416 65.200,348.984 65.200 C 348.806 65.200,349.097 65.695,349.630 66.300 M45.275 71.616 C 44.794 72.064,44.400 72.546,44.400 72.685 C 44.400 72.825,44.850 72.517,45.400 72.000 C 46.338 71.119,46.571 70.800,46.275 70.800 C 46.207 70.800,45.757 71.167,45.275 71.616 M30.600 91.731 C 30.380 92.006,30.152 92.494,30.094 92.816 C 30.025 93.198,30.198 93.132,30.594 92.624 C 30.927 92.196,31.200 91.701,31.200 91.524 C 31.200 91.092,31.077 91.134,30.600 91.731 M88.108 98.786 C 84.446 100.448,84.803 91.564,84.801 181.105 C 84.800 265.597,84.685 260.924,86.800 262.586 C 89.043 264.348,223.537 398.978,223.353 399.277 C 223.243 399.455,223.433 399.600,223.776 399.600 C 224.119 399.600,224.400 399.420,224.400 399.200 C 224.400 398.967,225.722 398.800,227.567 398.800 C 229.308 398.800,230.793 398.630,230.867 398.422 C 230.940 398.215,232.035 398.004,233.300 397.954 C 234.565 397.904,235.600 397.714,235.600 397.532 C 235.600 397.349,236.590 397.200,237.800 397.200 C 239.010 397.200,240.000 397.020,240.000 396.800 C 240.000 396.580,240.720 396.400,241.600 396.400 C 242.480 396.400,243.200 396.220,243.200 396.000 C 243.200 395.780,243.999 395.600,244.976 395.600 C 245.953 395.600,246.864 395.420,247.000 395.200 C 247.136 394.980,247.787 394.800,248.447 394.800 C 249.301 394.800,249.560 394.656,249.347 394.300 C 249.172 394.009,249.361 394.050,249.800 394.400 C 250.239 394.750,250.428 394.791,250.253 394.500 C 250.033 394.133,250.384 394.000,251.576 394.000 C 252.469 394.000,253.200 393.820,253.200 393.600 C 253.200 393.380,253.830 393.200,254.600 393.200 C 255.370 393.200,256.000 393.020,256.000 392.800 C 256.000 392.580,256.450 392.400,257.000 392.400 C 257.550 392.400,258.000 392.257,258.000 392.082 C 258.000 391.907,258.615 391.722,259.367 391.671 C 260.119 391.621,262.324 391.029,264.267 390.356 C 266.210 389.683,268.250 389.031,268.800 388.907 C 269.350 388.782,269.898 388.532,270.017 388.350 C 270.137 388.169,270.587 387.953,271.017 387.870 C 271.989 387.684,273.184 387.257,274.095 386.771 C 274.477 386.567,275.062 386.400,275.395 386.400 C 275.728 386.400,276.000 386.220,276.000 386.000 C 276.000 385.780,276.439 385.600,276.976 385.600 C 277.513 385.600,278.064 385.420,278.200 385.200 C 278.336 384.980,278.797 384.800,279.224 384.800 C 279.651 384.800,280.000 384.620,280.000 384.400 C 280.000 384.180,280.360 384.000,280.800 384.000 C 281.240 384.000,281.600 383.820,281.600 383.600 C 281.600 383.380,281.960 383.200,282.400 383.200 C 282.840 383.200,283.200 383.020,283.200 382.800 C 283.200 382.580,283.442 382.400,283.739 382.400 C 284.035 382.400,284.800 382.150,285.439 381.844 C 286.077 381.538,287.273 380.978,288.096 380.600 C 288.920 380.222,289.491 379.747,289.367 379.546 C 289.242 379.345,289.289 379.206,289.470 379.237 C 290.457 379.409,291.614 379.147,291.400 378.800 C 291.260 378.573,291.596 378.400,292.176 378.400 C 292.739 378.400,293.200 378.220,293.200 378.000 C 293.200 377.780,293.520 377.600,293.912 377.600 C 294.303 377.600,294.883 377.240,295.200 376.800 C 295.517 376.360,296.097 376.000,296.488 376.000 C 296.880 376.000,297.200 375.820,297.200 375.600 C 297.200 375.380,297.479 375.200,297.820 375.200 C 298.447 375.200,300.832 374.099,301.200 373.639 C 301.310 373.502,302.247 372.962,303.282 372.441 C 304.318 371.919,305.525 371.157,305.966 370.746 C 306.406 370.336,307.004 370.000,307.295 370.000 C 307.586 370.000,308.083 369.640,308.400 369.200 C 308.717 368.760,309.257 368.400,309.600 368.400 C 309.943 368.400,310.483 368.040,310.800 367.600 C 311.117 367.160,311.657 366.800,312.000 366.800 C 312.343 366.800,312.883 366.440,313.200 366.000 C 313.517 365.560,314.009 365.200,314.292 365.200 C 314.575 365.200,315.372 364.660,316.063 364.000 C 316.754 363.340,317.496 362.800,317.712 362.800 C 317.929 362.800,318.397 362.484,318.753 362.097 C 319.109 361.711,319.895 361.140,320.500 360.830 C 321.105 360.519,321.600 360.117,321.600 359.937 C 321.600 359.757,322.348 359.138,323.263 358.560 C 324.178 357.983,325.356 357.081,325.881 356.555 C 326.406 356.030,326.975 355.600,327.145 355.600 C 327.314 355.600,328.548 354.565,329.886 353.300 C 332.637 350.701,333.920 349.600,334.202 349.600 C 334.308 349.600,335.971 347.961,337.897 345.958 C 339.824 343.954,341.832 341.929,342.360 341.458 C 344.945 339.147,349.524 334.446,350.403 333.200 C 350.946 332.430,352.338 330.851,353.495 329.691 C 354.653 328.532,355.600 327.429,355.600 327.242 C 355.600 327.054,356.320 326.113,357.200 325.151 C 358.080 324.188,358.800 323.264,358.800 323.097 C 358.800 322.929,359.340 322.228,360.000 321.537 C 360.660 320.846,361.200 320.104,361.200 319.888 C 361.200 319.671,361.516 319.203,361.903 318.847 C 362.289 318.491,362.860 317.705,363.170 317.100 C 363.481 316.495,363.885 316.000,364.068 316.000 C 364.250 316.000,364.400 315.719,364.400 315.376 C 364.400 315.007,364.588 314.869,364.862 315.038 C 365.138 315.209,365.215 315.149,365.054 314.888 C 364.906 314.648,365.238 313.998,365.792 313.444 C 366.347 312.890,366.800 312.158,366.800 311.818 C 366.800 311.478,366.980 311.200,367.200 311.200 C 367.420 311.200,367.600 310.919,367.600 310.576 C 367.600 310.233,367.780 310.064,368.000 310.200 C 368.220 310.336,368.400 310.077,368.400 309.624 C 368.400 309.171,368.550 308.800,368.732 308.800 C 368.915 308.800,369.320 308.305,369.632 307.700 C 369.944 307.095,370.289 306.510,370.399 306.400 C 370.828 305.973,372.240 303.742,372.805 302.600 C 373.132 301.940,373.489 301.310,373.599 301.200 C 374.033 300.767,375.200 298.451,375.200 298.022 C 375.200 297.771,375.560 297.180,376.000 296.708 C 376.440 296.236,376.800 295.557,376.800 295.200 C 376.800 294.843,377.160 294.164,377.600 293.692 C 378.040 293.220,378.400 292.556,378.400 292.217 C 378.400 291.878,378.580 291.600,378.800 291.600 C 379.020 291.600,379.200 291.366,379.200 291.080 C 379.200 290.344,380.141 288.407,380.500 288.403 C 380.665 288.401,380.800 288.040,380.800 287.600 C 380.800 287.160,380.980 286.800,381.200 286.800 C 381.420 286.800,381.600 286.451,381.600 286.024 C 381.600 285.597,381.780 285.136,382.000 285.000 C 382.220 284.864,382.400 284.403,382.400 283.976 C 382.400 283.549,382.580 283.200,382.800 283.200 C 383.020 283.200,383.200 282.840,383.200 282.400 C 383.200 281.960,383.380 281.600,383.600 281.600 C 383.820 281.600,384.000 281.150,384.000 280.600 C 384.000 280.050,384.160 279.600,384.356 279.600 C 384.552 279.600,384.951 278.790,385.243 277.800 C 385.535 276.810,385.915 276.000,386.087 276.000 C 386.259 276.000,386.400 275.550,386.400 275.000 C 386.400 274.450,386.580 274.000,386.800 274.000 C 387.020 274.000,387.200 273.670,387.200 273.267 C 387.200 272.863,387.325 272.409,387.477 272.256 C 387.629 272.104,387.814 271.587,387.887 271.107 C 387.960 270.627,388.211 270.117,388.444 269.973 C 388.677 269.828,388.842 269.551,388.811 269.355 C 388.779 269.160,389.410 266.930,390.213 264.400 C 392.217 258.086,392.400 257.440,392.400 256.672 C 392.400 256.302,392.580 256.000,392.800 256.000 C 393.020 256.000,393.200 255.381,393.200 254.624 C 393.200 253.867,393.380 253.136,393.600 253.000 C 393.820 252.864,394.000 252.234,394.000 251.600 C 394.000 250.966,394.180 250.336,394.400 250.200 C 394.620 250.064,394.800 249.254,394.800 248.400 C 394.800 247.546,394.980 246.736,395.200 246.600 C 395.420 246.464,395.600 245.643,395.600 244.776 C 395.600 243.909,395.780 243.200,396.000 243.200 C 396.220 243.200,396.400 242.401,396.400 241.424 C 396.400 240.447,396.580 239.536,396.800 239.400 C 397.020 239.264,397.200 238.353,397.200 237.376 C 397.200 236.399,397.380 235.600,397.600 235.600 C 397.822 235.600,398.000 234.533,398.000 233.200 C 398.000 231.867,398.178 230.800,398.400 230.800 C 398.627 230.800,398.800 229.627,398.800 228.080 C 398.800 226.514,399.001 225.159,399.275 224.885 C 399.623 224.537,399.797 219.348,399.926 205.472 L 400.103 186.534 396.351 182.893 C 389.394 176.141,314.867 101.412,313.852 100.170 C 311.980 97.880,318.283 97.999,199.754 98.009 C 92.193 98.017,89.763 98.034,88.108 98.786 M312.813 99.800 C 314.905 101.665,314.800 97.390,314.798 180.887 C 314.796 232.948,314.660 259.089,314.384 260.083 C 313.460 263.407,315.982 263.182,278.341 263.298 L 245.000 263.400 245.000 277.800 L 245.000 292.200 249.700 292.313 L 254.400 292.425 254.400 296.814 L 254.400 301.203 200.100 301.101 L 145.800 301.000 145.687 296.713 L 145.573 292.426 150.287 292.313 L 155.000 292.200 155.105 278.027 C 155.187 266.954,155.100 263.783,154.705 263.533 C 154.427 263.357,139.350 263.209,121.200 263.206 L 88.200 263.199 87.144 262.291 C 86.563 261.791,85.889 260.666,85.646 259.791 C 85.060 257.678,85.016 104.478,85.602 102.370 C 86.033 100.817,87.332 99.394,88.600 99.085 C 91.679 98.334,311.958 99.037,312.813 99.800 M388.406 130.633 C 388.409 131.055,388.595 131.670,388.818 132.000 C 389.115 132.438,389.152 132.276,388.956 131.400 C 388.627 129.929,388.398 129.610,388.406 130.633 M44.400 327.277 C 44.400 327.387,44.760 327.893,45.200 328.400 C 45.640 328.907,46.000 329.143,46.000 328.923 C 46.000 328.704,45.640 328.198,45.200 327.800 C 44.760 327.402,44.400 327.166,44.400 327.277 " stroke="none" fill="#d47c4c" fill-rule="evenodd"></path><path id="path4" d="M88.600 99.085 C 87.332 99.394,86.033 100.817,85.602 102.370 C 85.016 104.478,85.060 257.678,85.646 259.791 C 86.139 261.566,87.779 263.216,89.000 263.167 C 89.597 263.143,89.473 262.992,88.512 262.571 C 85.801 261.385,86.000 267.862,86.000 180.851 L 86.000 102.061 87.036 100.831 L 88.071 99.600 199.981 99.600 L 311.891 99.600 312.945 100.655 L 314.000 101.709 314.000 181.193 L 314.000 260.676 313.164 261.433 C 312.704 261.849,311.849 262.402,311.264 262.662 C 310.460 263.020,310.380 263.143,310.938 263.168 C 312.198 263.223,313.946 261.658,314.384 260.083 C 314.660 259.089,314.796 232.948,314.798 180.887 C 314.800 97.390,314.905 101.665,312.813 99.800 C 311.958 99.037,91.679 98.334,88.600 99.085 M101.852 112.163 C 98.494 113.204,98.785 107.027,98.899 175.056 L 99.000 235.400 200.100 235.501 L 301.200 235.602 301.191 175.101 C 301.181 106.684,301.517 113.202,297.944 112.134 C 295.494 111.401,104.220 111.430,101.852 112.163 M298.678 113.182 C 300.915 114.546,300.843 112.326,300.717 176.000 L 300.600 235.000 200.000 235.000 L 99.400 235.000 99.283 176.000 C 99.157 112.326,99.085 114.546,101.322 113.182 C 103.333 111.956,296.667 111.956,298.678 113.182 " stroke="none" fill="#7c8c9c" fill-rule="evenodd"></path></g></svg>